<?xml version="1.0" encoding="UTF-8"?>
<svg width="44px" height="20px" viewBox="0 0 44 20" version="1.1" xmlns="http://www.w3.org/2000/svg" xmlns:xlink="http://www.w3.org/1999/xlink">
    <!-- Generator: Sketch 50.2 (55047) - http://www.bohemiancoding.com/sketch -->
    <title>Group 2 Copy 2</title>
    <desc>Created with Sketch.</desc>
    <defs></defs>
    <g id="Page-1" stroke="none" stroke-width="1" fill="none" fill-rule="evenodd">
        <g id="Group-2-Copy-2">
            <path d="M13.6878615,0.509090909 L16.7370236,0.509090909 L7.53254375,8.54800905 L18.0193815,19.2665666 L14.8847289,19.2665666 L5.90822377,9.94037068 L2.74507435,12.698823 L2.74507435,19.2665666 L0.408333333,19.2665666 L0.408333333,0.509090909 L2.74507435,0.509090909 L2.74507435,10.2556224 L13.6878615,0.509090909 Z M20.2421351,0.509090909 L22.5503793,0.509090909 L22.5503793,19.2665666 L20.2421351,19.2665666 L20.2421351,0.509090909 Z M26.8249055,0.509090909 L34.120097,0.509090909 C37.3402401,0.509090909 39.7624717,1.34976209 41.4152885,3.08364639 C42.9256211,4.65990485 43.6950358,6.94547961 43.6950358,9.88782874 C43.6950358,12.7776359 42.8686274,15.0632107 41.2443074,16.6920111 C39.5344969,18.3996244 37.0837685,19.2665666 33.8921223,19.2665666 L26.8249055,19.2665666 L26.8249055,0.509090909 Z M29.1616466,2.37433008 L29.1616466,17.4013274 L33.4931665,17.4013274 C36.1433728,17.4013274 38.1381517,16.744553 39.4775032,15.4572753 C40.7313643,14.1962685 41.3867916,12.3310293 41.3867916,9.88782874 C41.3867916,7.3658152 40.788358,5.50057603 39.6199875,4.29211121 C38.3661264,3.00483347 36.4283412,2.37433008 33.7496381,2.37433008 L29.1616466,2.37433008 Z" id="KID" fill="#000000"></path>
            <path d="M35.758642,17.8228299 C40.5129416,17.8228299 42.1575605,14.5147184 42.1575605,10.1317736 C42.1575605,5.74882888 40.5129416,1.22388426 35.758642,1.22388426 C33.8299241,1.22388426 30.3119803,0.538878164 28.8767754,1.93955879 C26.7741927,3.99156312 27.1502211,8.66624332 27.1502211,11.2711209 C27.1502211,13.5069205 27.2630737,16.3803972 28.8767754,17.8228299 C30.4264901,19.2080669 33.4295753,17.8228299 35.758642,17.8228299 Z" id="Oval" fill="#000000"></path>
            <path d="M33.1179581,7.07902373 L33.7995075,7.07902373 L33.7995075,10.8029343 C33.7995075,11.400599 33.6665223,11.8450163 33.4005518,12.151511 C33.1013349,12.4886552 32.6192634,12.6572273 31.9626486,12.6572273 C31.4057728,12.6572273 30.9818823,12.5116423 30.6826655,12.2357971 C30.3668255,11.9446271 30.2172171,11.5308593 30.2172171,10.9944935 L30.2172171,10.8029343 L30.8987665,10.8029343 L30.8987665,10.9868312 C30.8987665,11.7224184 31.2561644,12.0978744 31.9792718,12.0978744 C32.3782276,12.0978744 32.6691328,11.9829389 32.8519876,11.7683926 C33.0265307,11.5615087 33.1179581,11.2320269 33.1179581,10.7799472 L33.1179581,7.07902373 Z M36.9828422,6.97175059 C37.6477685,6.97175059 38.1797096,7.1096732 38.5620422,7.3931808 C38.960998,7.68435077 39.1854106,8.12110571 39.2435917,8.69578328 L38.5703538,8.69578328 C38.4955496,8.29734017 38.329318,8.0061702 38.0716591,7.81461101 C37.8056885,7.61538946 37.4316675,7.52344105 36.9495959,7.52344105 C36.5090822,7.52344105 36.1683075,7.58473999 35.9189601,7.7226626 C35.6363665,7.87590995 35.4950696,8.10578098 35.4950696,8.41993805 C35.4950696,8.69578328 35.6613012,8.91799193 36.0020759,9.08656402 C36.1516843,9.16318769 36.5173938,9.27812321 37.0908928,9.43137056 C37.8721812,9.64591685 38.387499,9.8221513 38.6368464,9.96007392 C39.1272296,10.2359191 39.3765769,10.6190375 39.3765769,11.1170914 C39.3765769,11.5921582 39.1687875,11.9752766 38.7532085,12.2511218 C38.3376296,12.5193047 37.7807538,12.6572273 37.0742696,12.6572273 C36.376097,12.6572273 35.8275328,12.5193047 35.428577,12.2434594 C34.9631286,11.9139776 34.7054696,11.4159237 34.6556002,10.7416354 L35.328838,10.7416354 C35.3870191,11.2167022 35.5698738,11.5691711 35.8690907,11.7913797 C36.1433728,11.9906013 36.5423286,12.0978744 37.0742696,12.0978744 C37.5563412,12.0978744 37.955297,12.0135884 38.2545138,11.8450163 C38.5537306,11.6764442 38.703339,11.4465732 38.703339,11.1554032 C38.703339,10.8105967 38.5038612,10.5424138 38.1132169,10.3508547 C37.9469854,10.2589062 37.5230949,10.128646 36.8581685,9.95241155 C36.1433728,9.75318999 35.6862359,9.59994264 35.4950696,9.50799423 C35.0379328,9.26279847 34.8135202,8.91032957 34.8135202,8.45058752 C34.8135202,7.97552073 35.0296212,7.60006472 35.4701349,7.33954423 C35.8607791,7.09434847 36.3677854,6.97175059 36.9828422,6.97175059 Z" id="JS" fill="#FFFFFF"></path>
        </g>
    </g>
</svg>